<svg width="226" height="26" viewBox="0 0 226 26" fill="none" xmlns="http://www.w3.org/2000/svg">
<path d="M1.825 25C1.59167 25 1.38167 24.9183 1.195 24.755C1.03167 24.5683 0.95 24.3583 0.95 24.125V1.375C0.95 1.11833 1.03167 0.908332 1.195 0.744999C1.38167 0.581665 1.59167 0.499998 1.825 0.499998H12.5C15.44 0.499998 17.6217 1.10667 19.045 2.32C20.4917 3.51 21.215 5.21333 21.215 7.43C21.215 8.59667 20.9117 9.58833 20.305 10.405C19.7217 11.1983 19.0567 11.7817 18.31 12.155C19.2667 12.5983 20.0717 13.31 20.725 14.29C21.3783 15.27 21.705 16.3667 21.705 17.58C21.705 19.9133 20.935 21.7333 19.395 23.04C17.855 24.3467 15.6617 25 12.815 25H1.825ZM11.8 10.23C12.7333 10.23 13.445 9.99667 13.935 9.53C14.425 9.04 14.67 8.39833 14.67 7.605C14.67 6.835 14.425 6.21667 13.935 5.75C13.445 5.28333 12.7333 5.05 11.8 5.05H7.25V10.23H11.8ZM12.115 20.45C13.0717 20.45 13.8183 20.17 14.355 19.61C14.8917 19.05 15.16 18.3733 15.16 17.58C15.16 16.74 14.8917 16.0517 14.355 15.515C13.8183 14.955 13.0717 14.675 12.115 14.675H7.25V20.45H12.115ZM26.4686 25C26.2352 25 26.0252 24.9183 25.8386 24.755C25.6752 24.5683 25.5936 24.3583 25.5936 24.125V1.375C25.5936 1.11833 25.6752 0.908332 25.8386 0.744999C26.0252 0.581665 26.2352 0.499998 26.4686 0.499998H42.8136C43.0702 0.499998 43.2802 0.581665 43.4436 0.744999C43.6069 0.908332 43.6886 1.11833 43.6886 1.375V4.665C43.6886 4.89833 43.6069 5.10833 43.4436 5.295C43.2802 5.45833 43.0702 5.54 42.8136 5.54H31.6486V10.265H42.0436C42.3002 10.265 42.5102 10.3583 42.6736 10.545C42.8369 10.7083 42.9186 10.9183 42.9186 11.175V14.22C42.9186 14.4533 42.8369 14.6633 42.6736 14.85C42.5102 15.0133 42.3002 15.095 42.0436 15.095H31.6486V19.96H43.0936C43.3502 19.96 43.5602 20.0417 43.7236 20.205C43.8869 20.3683 43.9686 20.5783 43.9686 20.835V24.125C43.9686 24.3583 43.8869 24.5683 43.7236 24.755C43.5602 24.9183 43.3502 25 43.0936 25H26.4686ZM48.8221 25C48.5887 25 48.3787 24.9183 48.1921 24.755C48.0287 24.5683 47.9471 24.3583 47.9471 24.125V1.375C47.9471 1.11833 48.0287 0.908332 48.1921 0.744999C48.3787 0.581665 48.5887 0.499998 48.8221 0.499998H52.5321C53.1154 0.499998 53.5121 0.721665 53.7221 1.165L62.2621 14.605V1.375C62.2621 1.11833 62.3437 0.908332 62.5071 0.744999C62.6937 0.581665 62.9037 0.499998 63.1371 0.499998H67.3371C67.5937 0.499998 67.8037 0.581665 67.9671 0.744999C68.1304 0.908332 68.2121 1.11833 68.2121 1.375V24.09C68.2121 24.3467 68.1304 24.5683 67.9671 24.755C67.8037 24.9183 67.5937 25 67.3371 25H63.5921C63.0787 25 62.6937 24.7783 62.4371 24.335L53.8971 11.385V24.125C53.8971 24.3583 53.8154 24.5683 53.6521 24.755C53.4887 24.9183 53.2787 25 53.0221 25H48.8221ZM81.4295 25C81.1962 25 80.9862 24.9183 80.7995 24.755C80.6362 24.5683 80.5545 24.3583 80.5545 24.125V1.375C80.5545 1.11833 80.6362 0.908332 80.7995 0.744999C80.9862 0.581665 81.1962 0.499998 81.4295 0.499998H90.5295C93.9595 0.499998 96.6195 1.31666 98.5095 2.95C100.399 4.58333 101.391 6.95167 101.484 10.055C101.508 10.7317 101.519 11.63 101.519 12.75C101.519 13.87 101.508 14.7567 101.484 15.41C101.368 18.6533 100.399 21.0683 98.5795 22.655C96.7828 24.2183 94.1578 25 90.7045 25H81.4295ZM90.5295 19.96C92.0695 19.96 93.2012 19.5983 93.9245 18.875C94.6478 18.1283 95.0328 16.95 95.0795 15.34C95.1262 14.6633 95.1495 13.7883 95.1495 12.715C95.1495 11.6417 95.1262 10.7783 95.0795 10.125C95.0328 8.56167 94.6128 7.40667 93.8195 6.66C93.0495 5.91333 91.8945 5.54 90.3545 5.54H86.8545V19.96H90.5295ZM106.483 25C106.25 25 106.04 24.9183 105.853 24.755C105.69 24.5683 105.608 24.3583 105.608 24.125V1.375C105.608 1.11833 105.69 0.908332 105.853 0.744999C106.04 0.581665 106.25 0.499998 106.483 0.499998H122.828C123.085 0.499998 123.295 0.581665 123.458 0.744999C123.622 0.908332 123.703 1.11833 123.703 1.375V4.665C123.703 4.89833 123.622 5.10833 123.458 5.295C123.295 5.45833 123.085 5.54 122.828 5.54H111.663V10.265H122.058C122.315 10.265 122.525 10.3583 122.688 10.545C122.852 10.7083 122.933 10.9183 122.933 11.175V14.22C122.933 14.4533 122.852 14.6633 122.688 14.85C122.525 15.0133 122.315 15.095 122.058 15.095H111.663V19.96H123.108C123.365 19.96 123.575 20.0417 123.738 20.205C123.902 20.3683 123.983 20.5783 123.983 20.835V24.125C123.983 24.3583 123.902 24.5683 123.738 24.755C123.575 24.9183 123.365 25 123.108 25H106.483ZM136.288 25C136.055 25 135.845 24.9183 135.658 24.755C135.495 24.5683 135.413 24.3583 135.413 24.125V1.375C135.413 1.11833 135.495 0.908332 135.658 0.744999C135.845 0.581665 136.055 0.499998 136.288 0.499998H146.963C149.903 0.499998 152.085 1.10667 153.508 2.32C154.955 3.51 155.678 5.21333 155.678 7.43C155.678 8.59667 155.375 9.58833 154.768 10.405C154.185 11.1983 153.52 11.7817 152.773 12.155C153.73 12.5983 154.535 13.31 155.188 14.29C155.841 15.27 156.168 16.3667 156.168 17.58C156.168 19.9133 155.398 21.7333 153.858 23.04C152.318 24.3467 150.125 25 147.278 25H136.288ZM146.263 10.23C147.196 10.23 147.908 9.99667 148.398 9.53C148.888 9.04 149.133 8.39833 149.133 7.605C149.133 6.835 148.888 6.21667 148.398 5.75C147.908 5.28333 147.196 5.05 146.263 5.05H141.713V10.23H146.263ZM146.578 20.45C147.535 20.45 148.281 20.17 148.818 19.61C149.355 19.05 149.623 18.3733 149.623 17.58C149.623 16.74 149.355 16.0517 148.818 15.515C148.281 14.955 147.535 14.675 146.578 14.675H141.713V20.45H146.578ZM170.066 25.35C166.776 25.35 164.186 24.545 162.296 22.935C160.406 21.325 159.403 18.9567 159.286 15.83C159.263 15.1533 159.251 14.15 159.251 12.82C159.251 11.4667 159.263 10.4517 159.286 9.775C159.403 6.695 160.418 4.32667 162.331 2.67C164.268 0.989999 166.846 0.149999 170.066 0.149999C173.286 0.149999 175.865 0.989999 177.801 2.67C179.738 4.32667 180.753 6.695 180.846 9.775C180.893 11.1283 180.916 12.1433 180.916 12.82C180.916 13.4733 180.893 14.4767 180.846 15.83C180.73 18.9567 179.726 21.325 177.836 22.935C175.946 24.545 173.356 25.35 170.066 25.35ZM170.066 20.31C171.35 20.31 172.365 19.925 173.111 19.155C173.881 18.385 174.29 17.2067 174.336 15.62C174.383 14.2667 174.406 13.31 174.406 12.75C174.406 12.1433 174.383 11.1867 174.336 9.88C174.29 8.29333 173.881 7.115 173.111 6.345C172.341 5.575 171.326 5.19 170.066 5.19C168.806 5.19 167.791 5.575 167.021 6.345C166.275 7.115 165.866 8.29333 165.796 9.88C165.773 10.5333 165.761 11.49 165.761 12.75C165.761 13.9867 165.773 14.9433 165.796 15.62C165.866 17.2067 166.275 18.385 167.021 19.155C167.768 19.925 168.783 20.31 170.066 20.31ZM185.848 25C185.615 25 185.405 24.9183 185.218 24.755C185.055 24.5683 184.973 24.3583 184.973 24.125V1.375C184.973 1.11833 185.055 0.908332 185.218 0.744999C185.405 0.581665 185.615 0.499998 185.848 0.499998H202.193C202.45 0.499998 202.66 0.581665 202.823 0.744999C202.987 0.908332 203.068 1.11833 203.068 1.375V4.665C203.068 4.89833 202.987 5.10833 202.823 5.295C202.66 5.45833 202.45 5.54 202.193 5.54H191.028V10.265H201.423C201.68 10.265 201.89 10.3583 202.053 10.545C202.217 10.7083 202.298 10.9183 202.298 11.175V14.22C202.298 14.4533 202.217 14.6633 202.053 14.85C201.89 15.0133 201.68 15.095 201.423 15.095H191.028V19.96H202.473C202.73 19.96 202.94 20.0417 203.103 20.205C203.267 20.3683 203.348 20.5783 203.348 20.835V24.125C203.348 24.3583 203.267 24.5683 203.103 24.755C202.94 24.9183 202.73 25 202.473 25H185.848ZM208.202 25C207.969 25 207.759 24.9183 207.572 24.755C207.409 24.5683 207.327 24.3583 207.327 24.125V1.375C207.327 1.11833 207.409 0.908332 207.572 0.744999C207.759 0.581665 207.969 0.499998 208.202 0.499998H224.302C224.559 0.499998 224.769 0.581665 224.932 0.744999C225.095 0.908332 225.177 1.11833 225.177 1.375V4.91C225.177 5.14333 225.095 5.35333 224.932 5.54C224.769 5.70333 224.559 5.785 224.302 5.785H213.487V10.93H223.602C223.859 10.93 224.069 11.0233 224.232 11.21C224.395 11.3733 224.477 11.5833 224.477 11.84V15.34C224.477 15.5733 224.395 15.7833 224.232 15.97C224.069 16.1333 223.859 16.215 223.602 16.215H213.487V24.125C213.487 24.3817 213.405 24.5917 213.242 24.755C213.079 24.9183 212.869 25 212.612 25H208.202Z" fill="#3F3F3F"/>
</svg>
