<svg width="230" height="25" viewBox="0 0 230 25" fill="none" xmlns="http://www.w3.org/2000/svg">
<path d="M0.806875 24V0.899999H13.0919C15.9852 0.923332 18.1202 1.46 19.4969 2.51C20.8969 3.53667 21.5969 5.065 21.5969 7.095C21.5969 8.44833 21.1885 9.60333 20.3719 10.56C19.5552 11.5167 18.3069 12.1117 16.6269 12.345V12.38C18.5169 12.6133 19.9169 13.22 20.8269 14.2C21.7369 15.18 22.1919 16.3933 22.1919 17.84C22.1919 21.9467 19.4035 24 13.8269 24H0.806875ZM7.66687 10.07H11.6569C13.4069 10.07 14.2819 9.38167 14.2819 8.005C14.2819 6.62833 13.4069 5.94 11.6569 5.94H7.66687V10.07ZM7.66687 19.17H12.1819C13.9785 19.17 14.8769 18.47 14.8769 17.07C14.8769 15.6933 13.9785 15.005 12.1819 15.005H7.66687V19.17ZM25.1086 24V0.899999H43.7286V6.255H32.2486V10H41.4186V14.97H32.2486V18.645H44.1836V24H25.1086ZM68.8562 0.899999V24H61.0162L54.7162 12.555L53.2462 9.44H53.1762L53.3162 13.99V24H47.0862V0.899999H54.8912L61.1912 12.345L62.6962 15.46H62.7312L62.5912 10.91V0.899999H68.8562ZM93.0671 0.899999C96.6838 0.899999 99.4371 1.90333 101.327 3.91C103.217 5.91667 104.162 8.76333 104.162 12.45C104.162 16.1367 103.217 18.9833 101.327 20.99C99.4371 22.9967 96.6838 24 93.0671 24H82.4621V0.899999H93.0671ZM92.1921 18.785C93.8955 18.785 95.0855 18.26 95.7621 17.21C96.4621 16.16 96.8121 14.5733 96.8121 12.45C96.8121 10.3267 96.4621 8.74 95.7621 7.69C95.0855 6.64 93.8955 6.115 92.1921 6.115H89.6021V18.785H92.1921ZM107.55 24V0.899999H126.17V6.255H114.69V10H123.86V14.97H114.69V18.645H126.625V24H107.55ZM138.859 24V0.899999H151.144C154.037 0.923332 156.172 1.46 157.549 2.51C158.949 3.53667 159.649 5.065 159.649 7.095C159.649 8.44833 159.24 9.60333 158.424 10.56C157.607 11.5167 156.359 12.1117 154.679 12.345V12.38C156.569 12.6133 157.969 13.22 158.879 14.2C159.789 15.18 160.244 16.3933 160.244 17.84C160.244 21.9467 157.455 24 151.879 24H138.859ZM145.719 10.07H149.709C151.459 10.07 152.334 9.38167 152.334 8.005C152.334 6.62833 151.459 5.94 149.709 5.94H145.719V10.07ZM145.719 19.17H150.234C152.03 19.17 152.929 18.47 152.929 17.07C152.929 15.6933 152.03 15.005 150.234 15.005H145.719V19.17ZM173.87 0.549999C176.274 0.549999 178.327 1.02833 180.03 1.985C181.757 2.91833 183.075 4.27167 183.985 6.045C184.919 7.81833 185.385 9.95333 185.385 12.45C185.385 14.9467 184.919 17.0817 183.985 18.855C183.075 20.6283 181.757 21.9933 180.03 22.95C178.327 23.8833 176.274 24.35 173.87 24.35C171.467 24.35 169.402 23.8833 167.675 22.95C165.949 21.9933 164.619 20.6283 163.685 18.855C162.752 17.0817 162.285 14.9467 162.285 12.45C162.285 9.95333 162.752 7.81833 163.685 6.045C164.619 4.27167 165.949 2.91833 167.675 1.985C169.402 1.02833 171.467 0.549999 173.87 0.549999ZM173.87 6.01C171.047 6.01 169.635 8.15667 169.635 12.45C169.635 16.7433 171.047 18.89 173.87 18.89C176.67 18.89 178.07 16.7433 178.07 12.45C178.07 8.15667 176.67 6.01 173.87 6.01ZM188.829 24V0.899999H207.449V6.255H195.969V10H205.139V14.97H195.969V18.645H207.904V24H188.829ZM229.392 6.255H217.947V10.28H227.117V15.635H217.947V24H210.807V0.899999H229.392V6.255Z" fill="#3F3F3F"/>
</svg>
