<svg xmlns="http://www.w3.org/2000/svg" viewBox="0 0 32 32" style="enable-background:new 0 0 32 32" xml:space="preserve"><circle cx="16" cy="16" r="16" style="fill:#f5ac37"/><path d="m8.375 24.875-.003-.055c.014-.778.016-1.555 0-2.333.003-.262.007-.524.008-.787.001-.782-.003-1.564.004-2.346.001-.131-.043-.158-.162-.158-.724.004-1.449-.001-2.173.003-.122.001-.17-.032-.169-.157.005-.635.005-1.27.007-1.905.771-.003 1.543-.01 2.314-.007.134.001.184-.028.182-.172a89.955 89.955 0 0 1-.002-1.873c.001-.123-.044-.151-.156-.151-.724.004-1.448 0-2.173.006-.122.001-.168-.031-.167-.156.003-.588 0-1.175-.002-1.763-.001-.108.045-.144.153-.144.719.003 1.438-.002 2.157.004.145.001.19-.043.189-.187-.006-.882-.004-1.763-.004-2.645 0-.915.005-1.831-.002-2.746-.001-.167.057-.2.208-.199 1.417.004 2.834.001 4.251.002 1.081.001 2.162.001 3.243.009.546.004 1.085.083 1.622.18a9.576 9.576 0 0 1 3.128 1.153 9.265 9.265 0 0 1 1.766 1.364c.388.416.754.848 1.062 1.328.311.483.58.989.78 1.528.056.152.127.219.301.215.597-.013 1.195-.006 1.792-.006.23 0 .23.002.239.224l.002.126v1.512c.016.165-.061.203-.219.2-.461-.011-.922.002-1.383-.007-.142-.003-.181.039-.169.177.052.612.047 1.224-.005 1.835-.014.165.034.188.183.187.529-.005 1.058.005 1.587.009.066.088-.014.176-.002.267.015.117.006.238.008.357-.002.404-.013.807-.002 1.211.005.161-.048.211-.2.211-.629-.002-1.258.01-1.886 0-.161-.003-.233.049-.288.192-.457 1.19-1.177 2.199-2.105 3.067-.335.313-.706.581-1.073.854-.394.232-.783.473-1.2.663-.754.343-1.536.592-2.352.747-.778.147-1.56.189-2.348.188-2.252-.004-4.504-.002-6.756-.003-.06-.001-.122-.013-.185-.019zm13.819-5.663c-.171-.041-.344-.011-.516-.011-3.696-.003-7.392-.003-11.087-.009-.155 0-.202.035-.201.2.007 1.155.005 2.31-.003 3.465-.001.16.043.201.202.201 1.706-.006 3.412-.003 5.118-.007.246-.001.494.014.735-.055a7.24 7.24 0 0 0 2.164-.48c.252-.095.508-.184.734-.338.024-.008.051-.013.073-.025a6.467 6.467 0 0 0 1.415-1.002 6.426 6.426 0 0 0 1.37-1.813c.021-.042.075-.087-.004-.126zm.049-6.366c.007-.049-.018-.089-.038-.132a4.63 4.63 0 0 0-.363-.635c-.22-.332-.451-.656-.745-.93-.121-.18-.295-.307-.455-.446-.882-.766-1.906-1.245-3.036-1.523a7.456 7.456 0 0 0-1.674-.219c-1.789-.025-3.579-.01-5.369-.015-.148 0-.17.065-.17.191.003 1.186.004 2.372-.001 3.558-.001.149.048.184.19.184 3.847-.001 7.694.003 11.541.004.041.001.096.026.12-.037zM16.64 17.13v-.003c2.026 0 4.052-.001 6.078.003.131 0 .19-.037.201-.171.051-.618.05-1.236.001-1.854-.01-.123-.061-.17-.189-.17-4.052.003-8.104.004-12.155 0-.147 0-.188.044-.187.188.006.593.002 1.186.001 1.779 0 .228 0 .229.236.229l6.014-.001z" style="fill:#fefefd"/></svg>