<svg width="193" height="30" viewBox="0 0 193 30" fill="none" xmlns="http://www.w3.org/2000/svg">
<path d="M0.0859375 29V0.445312H7.80078V22.7695H18.7969V29H0.0859375ZM58.4867 29L57.0805 23.6484H47.8031L46.3578 29H37.8812L47.1977 0.328125H57.4906L66.9242 29H58.4867ZM55.4789 17.3203L54.2484 12.6328C53.962 11.5911 53.6104 10.2435 53.1937 8.58984C52.7901 6.9362 52.5232 5.7513 52.393 5.03516C52.2758 5.69922 52.0414 6.79297 51.6898 8.31641C51.3513 9.83984 50.5896 12.8411 49.4047 17.3203H55.4789ZM87.6297 0.445312H97.5906C101.471 0.445312 104.348 1.02474 106.223 2.18359C108.111 3.32943 109.055 5.11979 109.055 7.55469C109.055 9.15625 108.645 10.5234 107.825 11.6562C107.005 12.7891 105.924 13.5182 104.583 13.8438V14.0391C106.354 14.5078 107.636 15.2891 108.43 16.3828C109.225 17.4766 109.622 18.8958 109.622 20.6406C109.622 23.2318 108.645 25.276 106.692 26.7734C104.752 28.2578 102.102 29 98.743 29H87.6297V0.445312ZM95.3445 11.4023H97.6687C98.7755 11.4023 99.6284 11.1745 100.227 10.7188C100.839 10.263 101.145 9.58594 101.145 8.6875C101.145 7.08594 99.9344 6.28516 97.5125 6.28516H95.3445V11.4023ZM95.3445 17.0469V23.043H98.0594C100.468 23.043 101.673 22.0273 101.673 19.9961C101.673 19.0456 101.347 18.3164 100.696 17.8086C100.058 17.3008 99.1271 17.0469 97.9031 17.0469H95.3445ZM151.128 14.7617C151.128 19.8138 150.282 23.5182 148.589 25.875C146.896 28.2188 144.305 29.3906 140.816 29.3906C137.404 29.3906 134.833 28.1667 133.101 25.7188C131.369 23.2578 130.503 19.6055 130.503 14.7617C130.503 9.68359 131.349 5.95964 133.042 3.58984C134.735 1.22005 137.326 0.0351562 140.816 0.0351562C144.214 0.0351562 146.779 1.27214 148.511 3.74609C150.256 6.20703 151.128 9.87891 151.128 14.7617ZM138.179 14.7617C138.179 17.9909 138.381 20.2109 138.784 21.4219C139.188 22.6328 139.865 23.2383 140.816 23.2383C141.779 23.2383 142.456 22.6133 142.847 21.3633C143.251 20.1133 143.452 17.9128 143.452 14.7617C143.452 11.5977 143.251 9.38411 142.847 8.12109C142.443 6.84505 141.766 6.20703 140.816 6.20703C139.865 6.20703 139.188 6.81901 138.784 8.04297C138.381 9.26693 138.179 11.5065 138.179 14.7617ZM174.216 29L184.021 6.87109H171.658V0.484375H192.263V5.03516L182.205 29H174.216Z" fill="#343434"/>
</svg>
