<svg xmlns="http://www.w3.org/2000/svg" xmlns:xlink="http://www.w3.org/1999/xlink"
    id="svg" width="400" height="282.7713059472716" viewBox="0, 0, 400,282.7713059472716">
    <path id="path0" d="M79.583 73.058 C 78.794 73.416,75.157 77.300,74.615 78.364 C 74.342 78.900,73.504 80.836,72.754 82.667 C 72.004 84.498,70.492 87.974,69.393 90.392 C 68.295 92.810,65.425 99.164,63.016 104.512 C 54.574 123.258,49.452 133.944,40.405 151.686 C 32.039 168.092,31.307 170.071,31.283 176.334 L 31.269 179.890 32.249 181.852 C 35.412 188.182,42.683 190.677,53.709 189.217 C 55.395 188.993,57.989 188.718,59.473 188.604 C 67.392 187.999,91.811 183.521,96.015 181.903 C 97.094 181.488,98.520 181.024,99.183 180.872 C 100.282 180.622,100.419 180.511,100.721 179.630 C 100.904 179.099,101.932 176.898,103.006 174.739 C 104.080 172.581,105.505 169.215,106.172 167.259 C 106.839 165.303,108.921 159.951,110.799 155.365 C 112.677 150.779,114.355 146.631,114.529 146.148 L 114.845 145.269 118.551 144.477 C 120.589 144.042,123.801 143.322,125.690 142.877 C 127.578 142.432,130.172 141.873,131.453 141.634 C 132.735 141.395,133.976 141.099,134.212 140.977 C 134.597 140.778,134.641 140.902,134.641 142.187 C 134.641 144.920,133.181 173.321,133.019 173.744 C 132.793 174.332,133.382 186.290,133.696 187.473 C 134.279 189.677,139.438 193.991,141.488 193.991 C 143.007 193.991,143.376 193.637,143.587 191.974 C 143.678 191.263,143.924 190.047,144.133 189.273 L 144.514 187.866 145.893 189.047 C 153.015 195.146,159.342 196.234,173.145 193.733 C 183.351 191.883,185.661 191.163,195.953 186.625 C 199.258 185.168,202.845 183.629,203.924 183.205 C 208.804 181.287,212.161 179.407,214.470 177.299 C 215.684 176.191,217.394 174.708,218.271 174.003 C 222.825 170.343,223.815 168.409,224.411 162.004 C 224.873 157.039,224.173 154.895,220.980 151.501 C 215.817 146.012,210.556 143.358,203.584 142.724 C 202.017 142.581,199.908 142.306,198.896 142.113 C 195.128 141.392,192.389 141.018,190.883 141.018 C 190.030 141.018,189.332 140.927,189.332 140.816 C 189.332 140.282,192.476 135.937,194.404 133.807 C 195.593 132.493,197.344 130.515,198.294 129.412 C 199.244 128.309,200.766 126.695,201.676 125.826 C 206.296 121.410,209.743 109.914,208.113 104.353 C 205.620 95.849,195.930 90.437,187.730 92.969 C 175.938 96.612,167.026 108.621,162.357 127.161 L 161.801 129.368 154.352 128.891 L 146.904 128.413 146.899 126.561 C 146.886 121.944,145.755 110.239,145.203 109.013 C 145.082 108.743,144.851 107.639,144.690 106.560 C 144.077 102.447,141.423 95.843,139.006 92.416 C 135.098 86.876,134.240 86.398,132.311 88.695 C 131.772 89.337,130.771 90.419,130.088 91.100 C 128.551 92.628,127.420 94.206,126.038 96.750 C 125.452 97.830,123.122 101.776,120.861 105.520 C 114.883 115.419,112.419 119.741,109.908 124.734 C 107.456 129.609,105.883 131.652,103.108 133.560 L 101.715 134.519 101.915 136.726 C 102.418 142.268,101.990 143.892,97.293 154.261 C 94.820 159.719,92.836 164.400,92.076 166.569 C 91.730 167.556,90.991 169.316,90.433 170.480 L 89.420 172.598 87.812 172.980 C 86.928 173.191,85.487 173.435,84.611 173.522 C 83.734 173.610,80.423 174.104,77.253 174.620 C 61.989 177.104,64.013 176.897,56.582 176.729 C 52.912 176.645,48.929 176.510,47.731 176.429 L 45.555 176.281 45.715 174.920 C 45.803 174.172,46.546 171.784,47.367 169.613 C 48.188 167.442,49.330 164.396,49.906 162.845 C 50.885 160.203,56.281 148.406,68.302 122.624 C 74.460 109.418,77.895 101.752,80.465 95.482 C 81.528 92.887,83.121 89.153,84.003 87.183 C 87.175 80.102,87.449 74.786,84.722 73.259 C 84.179 72.955,80.157 72.798,79.583 73.058 M322.747 102.069 C 312.805 102.759,304.816 105.227,299.513 109.243 C 292.598 114.482,291.459 117.218,294.331 121.694 C 295.521 123.549,296.884 123.309,305.115 119.798 C 311.430 117.105,323.871 114.637,326.522 115.551 C 329.351 116.526,330.090 122.527,328.253 129.614 C 324.787 142.993,322.675 148.472,317.430 157.695 L 315.547 161.006 303.022 160.924 C 286.497 160.817,284.484 161.040,284.157 163.018 C 283.527 166.831,284.595 172.423,286.083 173.101 C 288.297 174.110,298.521 175.608,302.892 175.565 C 305.013 175.543,306.198 175.628,306.383 175.813 C 306.760 176.190,305.691 178.336,303.172 182.261 C 302.105 183.924,300.427 186.775,299.443 188.596 C 298.459 190.417,296.409 194.116,294.886 196.816 C 292.056 201.835,291.440 203.071,289.629 207.357 C 287.329 212.800,288.558 214.966,294.927 216.690 C 297.929 217.503,301.654 214.706,301.655 211.637 C 301.655 211.428,302.220 209.994,302.910 208.449 C 303.600 206.904,304.796 204.151,305.569 202.330 C 307.282 198.293,308.100 196.664,309.903 193.702 C 311.936 190.361,313.862 186.720,315.628 182.875 C 318.688 176.217,319.114 176.067,329.368 178.024 C 345.812 181.163,359.574 181.438,365.151 178.738 C 367.179 177.756,371.156 173.158,370.523 172.526 C 370.252 172.255,362.423 169.523,360.387 168.990 C 358.709 168.550,352.503 167.653,344.819 166.739 C 342.814 166.501,328.348 163.868,328.193 163.713 C 328.151 163.672,329.463 160.286,331.108 156.190 C 340.034 133.958,342.127 120.795,338.435 110.116 C 335.899 102.784,333.104 101.349,322.747 102.069 M197.425 104.969 C 197.897 105.103,198.428 105.306,198.605 105.420 C 198.981 105.662,199.203 107.419,198.858 107.419 C 198.728 107.419,198.682 107.516,198.756 107.635 C 198.904 107.875,197.676 110.315,196.828 111.465 C 196.529 111.870,196.214 112.394,196.127 112.630 C 196.040 112.866,195.848 113.059,195.701 113.059 C 195.554 113.059,195.498 113.164,195.577 113.291 C 195.655 113.418,195.304 113.938,194.796 114.445 C 194.288 114.953,194.037 115.282,194.239 115.177 C 194.440 115.071,194.344 115.213,194.026 115.493 C 193.707 115.773,193.521 116.002,193.612 116.002 C 193.869 116.002,192.209 118.226,191.668 118.606 C 191.402 118.793,191.274 118.945,191.384 118.945 C 191.647 118.945,190.754 120.012,187.950 123.044 C 185.904 125.256,177.597 132.549,178.541 131.304 C 178.743 131.037,178.486 131.265,177.969 131.810 C 177.452 132.356,177.104 132.636,177.197 132.434 C 177.289 132.232,177.069 132.425,176.709 132.863 C 175.612 134.196,175.613 133.823,176.716 129.430 C 177.301 127.103,178.117 123.599,178.530 121.643 C 178.943 119.687,179.548 117.149,179.874 116.002 C 180.201 114.856,180.651 113.261,180.874 112.459 C 181.377 110.653,183.960 107.905,186.143 106.854 C 189.091 105.436,195.377 104.385,197.425 104.969 M133.922 107.725 C 135.293 112.818,136.285 126.703,135.344 127.644 C 134.888 128.100,126.716 128.794,123.691 128.633 L 120.466 128.462 120.955 127.321 C 124.053 120.106,127.793 113.349,130.510 110.058 C 133.660 106.244,133.544 106.323,133.922 107.725 M271.490 116.938 C 256.446 124.471,245.563 133.989,238.506 145.786 C 233.031 154.938,234.860 166.584,242.353 170.278 C 253.915 175.978,269.067 173.900,278.837 165.276 C 285.009 159.828,286.071 158.484,286.873 155.103 C 288.112 149.882,288.318 147.296,287.816 143.267 C 287.302 139.136,287.195 138.802,284.803 133.815 L 282.700 129.433 282.914 126.825 C 283.444 120.344,283.193 119.159,280.745 116.571 C 279.566 115.324,277.941 114.516,276.657 114.537 C 276.445 114.541,274.120 115.621,271.490 116.938 M272.811 135.257 C 275.376 136.930,275.910 137.557,277.399 140.651 C 279.581 145.186,279.738 147.241,278.104 149.896 C 277.704 150.548,277.376 151.178,277.376 151.297 C 277.376 151.624,274.786 153.925,273.230 154.980 C 269.082 157.792,265.479 158.751,256.530 159.422 C 249.849 159.924,246.914 159.111,247.662 156.966 C 249.057 152.964,264.509 136.317,268.302 134.730 C 270.689 133.731,270.421 133.700,272.811 135.257 M159.166 139.411 C 159.166 140.146,159.006 141.995,158.811 143.519 C 157.360 154.825,156.911 164.817,157.689 168.486 C 159.091 175.100,162.371 179.098,165.858 178.444 C 167.603 178.117,167.464 178.615,169.970 163.723 C 171.436 155.020,171.672 154.607,175.617 153.889 C 181.174 152.876,185.315 152.908,194.237 154.030 C 215.206 156.669,218.151 159.255,208.749 166.778 C 201.796 172.342,180.997 180.829,169.467 182.807 C 160.911 184.275,150.691 182.747,146.781 179.417 C 145.799 178.580,145.919 173.793,146.955 172.484 C 147.266 172.091,147.105 171.125,146.705 170.993 C 146.290 170.856,144.451 172.845,144.451 173.431 C 144.451 173.679,144.279 173.881,144.069 173.881 C 143.532 173.881,145.675 140.938,146.250 140.364 C 146.338 140.276,158.142 138.156,158.860 138.099 C 159.070 138.082,159.166 138.493,159.166 139.411 " stroke="none" fill="#000000" fill-rule="evenodd" />
</svg>