<svg width="491" height="67" viewBox="0 0 491 67" fill="none" xmlns="http://www.w3.org/2000/svg">
<path d="M0.943359 66V1.75195H18.3018V51.9814H43.043V66H0.943359ZM146.745 66L143.581 53.959H122.707L119.455 66H100.383L121.345 1.48828H144.504L165.729 66H146.745ZM139.978 39.7207L137.209 29.1738C136.564 26.8301 135.773 23.7979 134.836 20.0771C133.928 16.3564 133.327 13.6904 133.034 12.0791C132.771 13.5732 132.243 16.0342 131.452 19.4619C130.69 22.8896 128.977 29.6426 126.311 39.7207H139.978ZM226.717 1.75195H249.129C257.859 1.75195 264.334 3.05566 268.553 5.66309C272.801 8.24121 274.925 12.2695 274.925 17.748C274.925 21.3516 274.002 24.4277 272.156 26.9766C270.311 29.5254 267.879 31.166 264.861 31.8984V32.3379C268.846 33.3926 271.731 35.1504 273.519 37.6113C275.306 40.0723 276.199 43.2656 276.199 47.1914C276.199 53.0215 274.002 57.6211 269.607 60.9902C265.242 64.3301 259.28 66 251.722 66H226.717V1.75195ZM244.075 26.4053H249.305C251.795 26.4053 253.714 25.8926 255.062 24.8672C256.438 23.8418 257.127 22.3184 257.127 20.2969C257.127 16.6934 254.402 14.8916 248.953 14.8916H244.075V26.4053ZM244.075 39.1055V52.5967H250.184C255.604 52.5967 258.313 50.3115 258.313 45.7412C258.313 43.6025 257.581 41.9619 256.116 40.8193C254.681 39.6768 252.586 39.1055 249.832 39.1055H244.075ZM383.988 33.9639C383.988 45.3311 382.084 53.666 378.275 58.9688C374.467 64.2422 368.637 66.8789 360.785 66.8789C353.109 66.8789 347.323 64.125 343.427 58.6172C339.53 53.0801 337.582 44.8623 337.582 33.9639C337.582 22.5381 339.486 14.1592 343.295 8.82715C347.104 3.49512 352.934 0.829102 360.785 0.829102C368.432 0.829102 374.203 3.6123 378.1 9.17871C382.025 14.7158 383.988 22.9775 383.988 33.9639ZM354.853 33.9639C354.853 41.2295 355.307 46.2246 356.215 48.9492C357.123 51.6738 358.646 53.0361 360.785 53.0361C362.953 53.0361 364.477 51.6299 365.355 48.8174C366.264 46.0049 366.718 41.0537 366.718 33.9639C366.718 26.8447 366.264 21.8643 365.355 19.0225C364.447 16.1514 362.924 14.7158 360.785 14.7158C358.646 14.7158 357.123 16.0928 356.215 18.8467C355.307 21.6006 354.853 26.6396 354.853 33.9639ZM450.337 66L472.397 16.21H444.58V1.83984H490.942V12.0791L468.311 66H450.337Z" fill="#343434"/>
</svg>
